<?xml version="1.0" standalone="no"?> <!DOCTYPE svg PUBLIC "-//W3C//DTD SVG 20010904//EN" "http://www.w3.org/TR/2001/REC-SVG-20010904/DTD/svg10.dtd"> <svg version="1.0" xmlns="http://www.w3.org/2000/svg" width="600.000000pt" height="150.000000pt" viewBox="0 0 600.000000 150.000000" preserveAspectRatio="xMidYMid meet"> <g transform="translate(0.000000,150.000000) scale(0.100000,-0.100000)" fill="#ffffff" stroke="none"> <path d="M3265 1419 c-1237 -4 -2304 -9 -2370 -12 -66 -3 -138 -11 -160 -17 -146 -41 -280 -116 -373 -209 -64 -64 -104 -121 -147 -214 -65 -137 -68 -158 -73 -520 l-4 -327 2444 2 2443 3 86 31 c156 56 275 153 360 293 20 33 105 226 189 428 84 203 169 407 190 454 l37 86 -75 7 c-41 3 -125 5 -186 4 -61 -1 -1123 -5 -2361 -9z m2575 -35 c10 -10 10 -14 2 -14 -7 0 -12 5 -12 12 0 6 -3 9 -6 6 -3 -4 0 -16 6 -28 10 -18 9 -21 -1 -15 -9 6 -11 3 -6 -8 3 -10 2 -17 -3 -17 -6 0 -10 -8 -10 -18 0 -10 -7 -28 -16 -40 -8 -12 -12 -27 -9 -32 3 -6 1 -10 -4 -10 -6 0 -10 -3 -9 -7 3 -13 -13 -53 -22 -53 -4 0 -11 -7 -14 -16 -4 -10 -2 -13 7 -9 6 4 2 -2 -11 -13 -12 -11 -18 -22 -13 -24 5 -1 3 -14 -5 -28 -13 -22 -14 -22 -9 -3 3 12 2 24 -3 27 -5 3 -8 -13 -7 -35 1 -23 -3 -46 -11 -54 -8 -7 -14 -22 -14 -33 0 -11 -11 -36 -25 -56 -14 -21 -21 -35 -15 -31 13 8 13 2 -2 -30 -6 -14 -15 -25 -20 -25 -5 0 -7 -4 -4 -9 7 -10 -34 -114 -46 -119 -4 -2 -8 -12 -8 -22 0 -10 -7 -31 -14 -47 -33 -62 -79 -168 -78 -175 1 -5 -2 -8 -7 -8 -5 0 -13 -9 -16 -20 -4 -11 -10 -18 -15 -15 -5 3 -12 -6 -16 -20 -6 -22 -15 -29 -36 -26 -4 0 -4 -7 -1 -16 4 -10 2 -14 -5 -9 -6 3 -13 -3 -17 -15 -5 -14 -12 -18 -23 -14 -9 3 -13 3 -9 -1 4 -4 -1 -13 -11 -21 -9 -8 -11 -11 -3 -7 9 5 12 3 7 -4 -5 -9 -13 -9 -28 -1 -16 9 -24 7 -37 -7 -15 -17 -15 -17 2 -4 24 17 45 -1 22 -20 -8 -7 -15 -9 -15 -6 0 4 -12 -1 -27 -12 -29 -19 -74 -39 -108 -47 -11 -2 -40 -12 -65 -22 -43 -17 -165 -18 -2462 -20 -2071 -1 -2419 1 -2429 13 -10 12 320 14 2367 14 2624 0 2447 -4 2589 64 89 42 192 136 255 233 45 69 84 154 289 648 135 324 121 296 145 289 12 -3 28 -12 36 -20z m-95 4 c-2 -7 -10 -26 -16 -43 -13 -33 -15 -41 -17 -68 -1 -10 -6 -15 -12 -12 -5 3 -10 0 -10 -7 0 -18 -43 -122 -54 -129 -5 -4 -6 -14 -3 -22 3 -9 1 -17 -4 -19 -6 -2 -11 -10 -13 -18 -2 -8 -10 -32 -20 -52 -9 -21 -16 -42 -16 -48 0 -5 -4 -10 -9 -10 -5 0 -12 -7 -15 -16 -3 -8 -2 -12 4 -9 6 3 7 -1 4 -9 -3 -9 -9 -16 -13 -16 -4 0 -8 -6 -8 -12 0 -7 -12 -37 -26 -67 -15 -29 -24 -58 -20 -64 4 -6 1 -7 -6 -3 -8 5 -11 3 -10 -5 1 -8 -6 -32 -16 -54 -52 -120 -74 -164 -100 -205 -16 -25 -28 -48 -27 -52 1 -5 -6 -8 -15 -8 -9 0 -14 -3 -10 -6 11 -11 -46 -65 -62 -59 -12 5 -13 3 -4 -6 9 -9 5 -17 -15 -34 -43 -36 -109 -74 -116 -68 -3 4 -6 1 -6 -5 0 -7 -7 -12 -15 -12 -8 0 -15 -4 -15 -10 0 -5 -11 -10 -24 -10 -14 0 -27 -4 -30 -9 -3 -5 -26 -12 -50 -15 -31 -5 -4441 -11 -4766 -6 l-35 0 0 288 c1 234 4 297 17 342 22 77 65 170 91 199 12 13 15 20 7 15 -8 -4 -4 7 10 25 36 47 110 121 122 121 5 0 6 5 3 10 -3 6 -1 10 5 10 12 0 77 46 98 70 8 9 11 10 7 2 -6 -11 -3 -11 14 0 12 7 21 16 21 20 0 4 7 4 17 1 11 -4 14 -3 9 5 -5 8 -2 10 8 6 9 -3 16 -1 16 5 0 6 3 10 8 9 17 -4 82 15 82 24 0 5 10 6 21 3 14 -5 19 -3 15 3 -4 6 2 11 11 11 10 0 41 3 68 5 28 3 1143 8 2480 11 1337 4 2432 9 2434 11 8 8 10 4 6 -8z"/> <path d="M5570 775 c0 -8 2 -15 4 -15 2 0 6 7 10 15 3 8 1 15 -4 15 -6 0 -10 -7 -10 -15z"/> <path d="M5504 659 c-3 -6 -2 -15 3 -20 5 -5 9 -1 9 11 0 23 -2 24 -12 9z"/> <path d="M5447 493 c3 -7 6 -13 8 -13 2 0 5 6 8 13 3 8 -1 14 -8 14 -7 0 -11 -6 -8 -14z"/> <path d="M5411 468 c-13 -20 -12 -22 1 -11 8 7 18 10 22 6 4 -4 4 0 0 10 -8 21 -6 21 -23 -5z"/> <path d="M1964 1295 c-46 -15 -72 -50 -95 -128 -11 -39 -25 -77 -30 -83 -5 -6 -7 -13 -4 -16 3 -3 -8 -44 -24 -92 -16 -47 -30 -89 -30 -91 -1 -3 -2 -7 -2 -10 -1 -3 -2 -8 -3 -12 -1 -5 -6 -21 -12 -38 -6 -16 -24 -72 -40 -122 -15 -51 -31 -93 -36 -93 -4 0 -7 -3 -7 -7 5 -31 -2 -35 -56 -31 -37 3 -52 1 -48 -6 3 -6 0 -6 -7 1 -7 6 -20 9 -29 7 -9 -3 -6 1 7 7 12 7 22 16 22 21 0 4 7 8 15 8 8 0 22 11 31 25 9 14 21 22 27 18 5 -3 7 -1 3 5 -3 6 -2 13 3 16 12 8 63 106 55 106 -4 0 0 7 7 17 8 9 13 18 12 20 -2 1 -3 4 -2 6 6 17 4 111 -3 142 -6 22 -12 47 -13 56 -7 33 -44 95 -75 124 -17 17 -39 38 -48 48 -33 36 -144 81 -209 85 -72 5 -156 -5 -148 -18 3 -4 -5 -6 -17 -2 -14 3 -19 1 -14 -6 4 -7 2 -10 -7 -7 -15 7 -141 -86 -157 -115 -10 -19 -21 -20 -154 -20 -136 0 -143 -1 -164 -23 -12 -13 -22 -35 -22 -50 0 -27 36 -70 51 -61 4 2 6 -4 4 -15 -2 -10 3 -27 10 -38 8 -10 15 -24 15 -31 0 -6 11 -35 24 -62 13 -28 21 -48 16 -45 -4 3 -3 -6 3 -19 7 -13 16 -22 21 -19 5 4 7 -1 3 -9 -3 -9 1 -25 9 -36 8 -12 13 -25 12 -29 -1 -4 5 -21 14 -38 9 -16 21 -50 28 -74 6 -24 18 -50 26 -58 7 -8 20 -23 28 -34 8 -12 26 -22 40 -23 24 -1 24 -2 7 -21 -27 -30 -37 -50 -20 -40 11 7 12 6 2 -6 -19 -23 -3 -107 18 -94 11 7 29 -36 21 -49 -3 -5 0 -6 7 -2 6 4 8 13 4 19 -4 8 -1 7 9 -1 16 -12 91 -14 83 -2 -2 4 9 14 25 23 33 20 51 80 31 100 -15 15 -14 30 2 21 6 -4 -1 8 -18 26 -23 25 -25 30 -9 22 30 -16 406 -14 416 2 6 8 8 7 8 -2 0 -7 5 -10 12 -6 7 4 8 3 4 -5 -4 -6 -11 -9 -16 -6 -11 7 -22 -24 -13 -37 4 -7 1 -8 -7 -3 -10 6 -12 4 -7 -8 3 -10 2 -17 -3 -17 -12 0 18 -72 36 -86 7 -6 11 -14 8 -17 -3 -3 5 -3 18 0 16 3 19 2 10 -5 -9 -6 2 -8 34 -7 27 1 50 8 52 14 2 6 8 9 12 6 5 -3 19 15 30 41 18 39 20 51 10 75 -7 16 -10 37 -6 46 5 15 3 14 -10 -2 l-16 -20 4 20 c2 11 14 25 28 31 18 8 29 25 39 60 8 27 18 56 22 64 11 23 44 144 41 153 -1 4 2 7 8 7 5 0 10 7 10 15 0 8 6 34 14 57 35 111 41 134 38 147 -2 7 1 11 6 7 8 -5 40 120 34 137 -1 4 3 7 8 7 6 0 10 11 10 24 0 30 20 36 123 36 l78 0 15 35 c10 25 12 41 5 54 -6 10 -7 22 -3 26 4 5 2 5 -5 2 -6 -4 -13 -2 -15 4 -5 14 -184 17 -224 4z m228 -40 c9 -21 8 -28 -7 -45 -14 -16 -33 -20 -109 -22 l-91 -3 -22 -70 c-12 -38 -58 -189 -103 -335 -69 -224 -86 -269 -111 -293 l-29 -27 -358 0 c-282 1 -362 4 -382 14 -20 11 -44 62 -121 253 -85 210 -95 240 -83 259 11 19 11 21 -12 16 -46 -9 -72 39 -38 72 13 13 41 16 157 16 140 -1 142 -1 120 -19 -13 -11 -23 -30 -23 -45 0 -25 -1 -26 -69 -26 l-69 0 63 -152 c34 -84 75 -185 91 -224 l29 -72 145 -6 c179 -8 161 -8 362 0 l167 6 55 172 c30 94 76 241 101 326 54 178 68 208 98 220 12 5 68 9 125 9 100 1 103 0 114 -24z m-702 -38 c110 -52 195 -172 207 -290 9 -86 -25 -182 -86 -249 -181 -198 -490 -152 -604 90 -27 58 -29 70 -25 145 9 153 94 267 241 319 76 27 193 20 267 -15z m-544 -329 c0 -50 -3 -82 -7 -72 -4 11 -18 46 -30 79 -13 33 -27 65 -31 71 -5 7 6 10 30 11 l38 1 0 -90z m53 -178 c-4 -3 -1 -11 7 -18 8 -7 14 -9 15 -5 0 4 4 -2 10 -15 5 -14 13 -20 20 -16 8 4 9 3 5 -4 -4 -7 -2 -12 4 -12 6 0 8 -6 4 -12 -4 -7 -4 -10 1 -6 4 4 23 -6 42 -22 19 -17 40 -27 46 -24 7 4 8 3 4 -1 -4 -5 -29 -8 -55 -6 -37 1 -52 8 -70 29 -18 22 -38 69 -47 112 0 3 -7 16 -14 30 l-14 25 24 -25 c14 -14 21 -27 18 -30z m109 -281 c34 -12 66 -66 56 -96 -23 -65 -100 -85 -144 -38 -41 44 -23 112 35 136 11 4 20 8 21 8 1 1 15 -4 32 -10z m610 -21 c44 -42 21 -120 -41 -136 -92 -25 -144 99 -63 149 36 22 70 18 104 -13z"/> <path d="M1885 1019 c-4 -6 -5 -12 -2 -15 2 -3 7 2 10 11 7 17 1 20 -8 4z"/> <path d="M966 567 c3 -10 9 -15 12 -12 3 3 0 11 -7 18 -10 9 -11 8 -5 -6z"/> <path d="M1723 525 c0 -7 6 -11 14 -8 7 3 13 6 13 8 0 2 -6 5 -13 8 -8 3 -14 -1 -14 -8z"/> <path d="M1195 1180 c-22 -11 -53 -31 -70 -44 l-30 -24 35 -14 c35 -15 35 -15 51 16 10 17 28 43 43 59 30 32 24 34 -29 7z"/> <path d="M1282 1183 c-13 -9 -37 -36 -53 -60 -33 -48 -33 -49 44 -56 l47 -5 0 69 c0 38 -3 69 -7 68 -5 0 -18 -7 -31 -16z m8 -62 c0 -16 -28 -33 -35 -21 -3 5 -1 10 5 10 6 0 8 5 5 10 -3 6 1 10 9 10 9 0 16 -4 16 -9z"/> <path d="M1350 1131 l0 -70 38 5 c85 12 84 11 68 43 -16 30 -80 91 -96 91 -6 0 -10 -31 -10 -69z m64 -10 c16 -18 16 -19 -6 -23 -19 -3 -23 0 -23 19 0 28 7 29 29 4z"/> <path d="M1461 1160 c21 -22 39 -47 39 -55 0 -8 4 -15 10 -15 14 0 60 22 60 29 0 11 -94 70 -122 76 -26 7 -25 5 13 -35z"/> <path d="M1557 1071 c-26 -11 -35 -20 -31 -31 4 -8 12 -40 18 -70 l11 -55 53 0 c61 0 63 5 32 88 -31 82 -37 87 -83 68z m59 -95 c-2 -68 -46 -24 -46 47 l0 32 23 -25 c15 -15 23 -36 23 -54z"/> <path d="M1046 1029 c-26 -57 -36 -102 -23 -106 4 -2 29 -3 56 -3 l48 0 6 43 c4 23 9 54 13 68 5 22 2 27 -19 33 -14 3 -32 9 -41 12 -12 5 -22 -7 -40 -47z m66 -14 c-8 -56 -13 -65 -37 -65 -29 0 -31 10 -9 56 18 38 51 44 46 9z"/> <path d="M1181 1016 c-13 -42 -18 -90 -8 -93 4 -2 39 -3 77 -3 l70 0 0 53 0 54 -65 9 -65 10 -9 -30z m99 -42 c0 -21 -4 -24 -40 -24 -35 0 -40 3 -40 23 0 31 4 34 45 29 29 -4 35 -8 35 -28z"/> <path d="M1412 1037 l-63 -11 3 -54 3 -54 78 -1 c74 -2 77 -1 77 21 0 32 -21 112 -29 110 -3 0 -34 -6 -69 -11z m65 -68 c-1 -19 -5 -21 -32 -21 -49 0 -55 2 -55 27 0 18 5 25 19 25 11 0 23 5 26 11 10 15 44 -19 42 -42z"/> <path d="M1016 853 c9 -38 51 -133 60 -133 4 0 23 5 44 11 l37 11 -13 37 c-7 20 -13 51 -14 69 l0 32 -60 0 -60 0 6 -27z m92 -42 c6 -27 6 -43 -1 -50 -13 -13 -28 -15 -25 -3 1 4 -6 21 -15 39 -23 43 -21 53 7 53 19 0 25 -7 34 -39z"/> <path d="M1165 848 c14 -73 26 -99 43 -94 10 3 38 8 65 12 l47 6 0 54 0 54 -81 0 -81 0 7 -32z m115 -22 c0 -19 -7 -26 -31 -31 -33 -8 -49 4 -49 38 0 13 9 17 40 17 36 0 40 -3 40 -24z"/> <path d="M1350 826 l0 -53 54 -7 c30 -3 61 -8 69 -12 10 -4 17 7 26 40 21 86 22 86 -69 86 l-80 0 0 -54z m124 3 c-3 -40 -5 -42 -48 -34 -29 6 -36 12 -36 31 0 20 6 23 43 27 23 2 42 4 43 5 0 1 -1 -12 -2 -29z"/> <path d="M1543 828 c-6 -29 -13 -61 -18 -70 -5 -12 -3 -18 6 -18 8 0 26 -7 42 -15 27 -14 27 -14 51 34 14 26 27 64 31 84 l7 37 -54 0 -55 0 -10 -52z m77 -7 c0 -17 -5 -33 -10 -36 -6 -4 -7 -12 -4 -18 4 -7 4 -9 -1 -5 -4 4 -16 3 -26 -2 -15 -9 -17 -6 -13 18 10 62 15 72 34 72 15 0 20 -7 20 -29z"/> <path d="M1215 720 c-8 -14 36 -72 75 -100 l30 -21 0 65 0 66 -49 0 c-28 0 -53 -5 -56 -10z m72 -28 c1 -10 -5 -19 -13 -19 -17 0 -18 9 -2 25 15 15 13 15 15 -6z"/> <path d="M1350 664 l0 -65 31 18 c36 20 92 91 83 104 -3 5 -30 9 -60 9 l-54 0 0 -66z m63 21 c0 -6 -7 -11 -16 -13 -12 -3 -15 1 -11 13 7 17 25 17 27 0z"/> <path d="M1127 698 l-28 -10 39 -29 c22 -16 57 -36 78 -45 l39 -16 -26 29 c-15 15 -34 40 -44 56 -19 30 -18 30 -58 15z"/> <path d="M1490 680 c-7 -17 -26 -42 -42 -55 -16 -14 -24 -25 -16 -25 18 0 111 54 127 74 11 13 9 17 -14 26 -38 14 -41 13 -55 -20z"/> <path d="M1126 347 c3 -10 9 -15 12 -12 3 3 0 11 -7 18 -10 9 -11 8 -5 -6z"/> <path d="M4040 1194 c-14 -3 -32 -8 -40 -11 -8 -3 -19 -7 -25 -8 -18 -2 -49 -18 -77 -37 -16 -11 -33 -16 -39 -12 -7 4 -9 3 -6 -3 4 -6 -2 -20 -12 -32 -19 -22 -37 -29 -25 -9 4 7 3 8 -5 4 -6 -4 -9 -11 -6 -16 3 -5 -2 -24 -11 -42 -10 -18 -19 -60 -21 -93 -2 -49 2 -69 24 -112 15 -29 33 -53 41 -53 7 0 10 -4 7 -10 -3 -5 -1 -10 5 -10 6 0 27 -11 48 -24 20 -14 48 -27 62 -30 85 -18 202 -46 210 -51 15 -9 12 -41 -4 -54 -15 -13 -116 -7 -125 8 -3 4 -19 24 -34 43 -24 29 -34 35 -60 32 -30 -3 -66 -10 -77 -15 -3 -1 -9 -3 -15 -4 -67 -13 -99 -31 -91 -52 3 -8 1 -11 -4 -8 -14 8 -13 3 8 -41 23 -52 63 -104 78 -104 7 0 17 -6 21 -14 4 -8 35 -27 68 -42 54 -26 70 -29 170 -29 91 0 116 3 139 19 16 10 25 13 22 7 -4 -6 8 -4 28 5 19 10 32 22 29 27 -4 6 0 8 10 4 10 -4 17 -1 17 6 0 7 9 18 19 24 32 20 71 115 71 174 0 54 -18 119 -32 119 -4 0 -8 4 -8 10 0 15 -33 50 -42 44 -5 -3 -7 0 -6 7 2 7 -12 17 -29 22 -18 5 -33 13 -33 18 0 4 -13 10 -29 14 -16 3 -32 13 -35 21 -3 8 -2 13 3 10 14 -9 165 26 184 42 20 18 16 55 -14 111 -18 34 -123 121 -146 121 -22 0 -28 2 -38 10 -12 10 -140 20 -175 14z m191 -50 c57 -18 123 -73 149 -125 30 -58 27 -64 -42 -78 -35 -6 -75 -14 -90 -17 -23 -5 -30 -2 -40 21 -16 36 -57 55 -115 55 -60 0 -93 -21 -93 -59 0 -37 14 -47 91 -66 158 -38 191 -49 233 -75 59 -38 86 -91 86 -167 -1 -105 -59 -185 -160 -218 -190 -61 -404 10 -454 152 l-15 43 37 9 c74 19 152 34 155 30 1 -2 9 -17 17 -34 20 -39 63 -59 126 -59 88 0 136 53 91 98 -16 16 -53 29 -126 44 -166 36 -226 69 -262 147 -93 201 154 380 412 299z m-113 -176 c-8 -6 -3 -7 15 -3 21 4 27 3 21 -6 -5 -9 -2 -10 9 -6 9 3 16 3 16 -1 -3 -21 2 -43 10 -38 4 3 13 -5 19 -18 l11 -24 -51 14 c-28 7 -55 11 -60 8 -4 -3 -8 0 -8 7 0 7 -3 10 -6 6 -8 -8 -60 18 -70 34 -4 8 -3 9 4 5 7 -4 12 -2 12 4 0 7 7 10 15 7 8 -4 17 -1 21 5 5 7 2 8 -6 3 -8 -5 -11 -4 -7 2 3 5 20 10 37 10 21 0 27 -3 18 -9z"/> <path d="M3298 1185 c-3 -3 -18 -8 -34 -11 -51 -9 -131 -51 -177 -93 -24 -22 -48 -37 -52 -33 -5 4 -6 2 -2 -4 3 -5 -6 -30 -19 -54 -32 -56 -54 -140 -54 -205 0 -73 12 -155 21 -150 4 3 7 -3 7 -12 -4 -48 85 -162 152 -196 19 -10 46 -24 60 -32 45 -25 153 -37 228 -25 37 6 69 15 70 21 2 5 11 9 19 9 21 0 123 59 123 72 0 5 16 25 35 43 19 19 37 47 41 62 4 15 12 31 17 35 6 3 16 41 22 84 13 80 10 155 -6 187 -6 9 -7 22 -3 28 3 6 -1 18 -9 27 -8 9 -22 33 -30 53 -33 81 -130 154 -244 183 -59 16 -154 22 -165 11z m227 -54 c27 -12 57 -29 67 -37 9 -9 22 -13 30 -8 7 4 10 4 6 -1 -4 -4 6 -25 22 -46 135 -169 115 -429 -43 -564 -136 -117 -394 -106 -520 21 -138 139 -141 407 -5 550 107 113 297 149 443 85z"/> <path d="M3109 1033 c-13 -16 -12 -17 4 -4 16 13 21 21 13 21 -2 0 -10 -8 -17 -17z"/> <path d="M3206 1011 c-3 -5 2 -15 12 -22 15 -12 16 -12 5 2 -7 9 -10 19 -6 22 3 4 4 7 0 7 -3 0 -8 -4 -11 -9z"/> <path d="M3460 1016 c0 -2 7 -9 15 -16 9 -7 15 -8 15 -2 0 5 -7 12 -15 16 -8 3 -15 4 -15 2z"/> <path d="M3297 985 c-52 -18 -85 -50 -110 -105 -36 -79 -21 -205 31 -264 46 -51 162 -72 225 -40 46 23 66 44 89 87 64 127 4 295 -117 326 -55 14 -71 13 -118 -4z m140 -28 c18 -6 30 -14 27 -19 -3 -4 1 -8 8 -8 14 0 48 -64 48 -89 0 -7 4 -10 8 -7 5 3 7 -21 6 -52 -4 -72 -7 -86 -23 -106 -7 -9 -10 -16 -7 -16 4 0 -9 -13 -27 -30 -19 -16 -44 -30 -56 -30 -13 0 -19 -4 -16 -11 10 -15 -86 -8 -112 9 -13 8 -23 12 -23 8 0 -12 -41 35 -60 69 -23 40 -27 112 -11 171 13 49 69 111 95 106 12 -3 16 0 11 8 -5 8 -2 10 11 6 11 -3 26 -1 34 4 15 10 27 8 87 -13z"/> <path d="M3160 918 c-10 -21 -10 -21 3 -6 8 10 18 14 22 10 5 -4 5 -1 1 6 -10 17 -14 15 -26 -10z"/> <path d="M3220 571 c0 -7 -5 -9 -12 -5 -7 5 -8 3 -3 -5 5 -9 10 -10 18 -2 6 6 8 14 4 18 -4 3 -7 1 -7 -6z"/> <path d="M3495 572 c3 -3 -1 -12 -7 -21 -8 -10 -4 -9 10 3 26 23 26 23 7 23 -8 0 -13 -3 -10 -5z"/> <path d="M3623 535 c0 -8 4 -12 9 -9 5 3 6 10 3 15 -9 13 -12 11 -12 -6z"/> <path d="M2318 1160 c-21 -17 -21 -24 -23 -384 -3 -431 -14 -395 125 -395 93 0 123 6 115 20 -4 5 -2 9 4 9 5 0 7 12 5 28 -2 15 -1 64 2 110 5 62 10 82 21 82 8 0 11 5 8 13 -7 12 11 -10 42 -52 10 -13 30 -38 45 -55 14 -17 25 -33 22 -37 -2 -4 3 -9 11 -13 8 -3 15 -12 15 -21 0 -8 4 -15 9 -15 10 0 27 -39 23 -53 -1 -5 2 -6 7 -3 5 4 13 2 16 -4 9 -14 255 -11 273 3 19 15 14 41 -13 67 -14 13 -25 29 -25 36 0 7 -5 16 -12 20 -7 4 -8 3 -4 -4 4 -7 5 -12 2 -12 -3 0 -13 15 -22 33 -9 17 -26 41 -38 52 -13 11 -27 27 -32 36 -10 18 -70 92 -96 120 -16 17 -38 53 -38 63 0 2 25 30 55 61 30 32 55 61 55 66 0 4 9 13 20 19 11 6 18 15 15 21 -4 5 -1 8 5 7 7 -2 17 6 23 16 7 11 22 29 34 41 13 12 19 26 15 30 -4 5 2 5 13 1 11 -4 16 -4 12 0 -4 4 -1 14 7 23 22 24 30 67 15 77 -7 4 -65 7 -128 7 l-116 0 -50 -50 c-27 -27 -66 -67 -85 -90 -29 -34 -38 -39 -50 -30 -13 11 -13 10 -1 -6 13 -16 13 -20 0 -28 -8 -5 -11 -9 -7 -9 3 0 -3 -11 -15 -24 -12 -14 -23 -23 -25 -21 -2 2 -3 53 -3 113 0 143 -7 150 -127 150 -63 -1 -88 -5 -104 -18z m712 -5 c0 -3 -39 -49 -88 -103 -48 -53 -118 -132 -156 -175 l-69 -77 39 -49 c22 -27 93 -116 160 -198 l120 -148 -128 5 -127 5 -91 125 c-50 69 -95 132 -100 140 -7 12 -14 9 -39 -20 -29 -34 -30 -38 -31 -142 l0 -108 -100 0 -100 0 0 365 0 365 100 0 101 0 -3 -155 c-2 -85 -1 -155 2 -154 3 0 61 69 130 152 l126 152 114 3 c63 1 119 7 124 12 11 11 16 13 16 5z"/> <path d="M2755 1040 c-4 -6 -11 -7 -17 -4 -7 4 -8 2 -4 -5 6 -8 12 -9 20 -2 7 6 17 7 21 3 5 -4 5 -1 1 6 -9 15 -13 15 -21 2z"/> <path d="M2730 921 c0 -6 4 -13 10 -16 6 -3 7 1 4 9 -7 18 -14 21 -14 7z"/> <path d="M2623 875 c0 -8 4 -12 9 -9 5 3 6 10 3 15 -9 13 -12 11 -12 -6z"/> <path d="M2776 512 c-2 -4 -1 -14 4 -22 7 -11 9 -9 7 8 -1 24 -3 26 -11 14z"/> <path d="M2884 472 c4 -3 14 -7 22 -8 9 -1 13 0 10 4 -4 3 -14 7 -22 8 -9 1 -13 0 -10 -4z"/> <path d="M324 1236 c1 -8 5 -18 8 -22 4 -3 5 1 4 10 -1 8 -5 18 -8 22 -4 3 -5 -1 -4 -10z"/> <path d="M5816 1113 c-6 -14 -5 -15 5 -6 7 7 10 15 7 18 -3 3 -9 -2 -12 -12z"/> <path d="M4988 63 c7 -3 16 -2 19 1 4 3 -2 6 -13 5 -11 0 -14 -3 -6 -6z"/> </g> </svg>