<svg xmlns="http://www.w3.org/2000/svg" viewBox="0 0 148 58" fill="none">
  <!-- Globe: light fill with green grid -->
  <circle cx="29" cy="26" r="16" fill="#f1f1f2"/>
  <ellipse cx="29" cy="26" rx="4" ry="16" stroke="#6ab725" stroke-width="0.8"/>
  <ellipse cx="29" cy="26" rx="8" ry="16" stroke="#6ab725" stroke-width="0.8"/>
  <ellipse cx="29" cy="26" rx="12" ry="16" stroke="#6ab725" stroke-width="0.8"/>
  <line x1="18.4" y1="14" x2="39.6" y2="14" stroke="#6ab725" stroke-width="0.8"/>
  <line x1="15.1" y1="18" x2="42.9" y2="18" stroke="#6ab725" stroke-width="0.8"/>
  <line x1="13.5" y1="22" x2="44.5" y2="22" stroke="#6ab725" stroke-width="0.8"/>
  <line x1="13"   y1="26" x2="45"   y2="26" stroke="#6ab725" stroke-width="0.8"/>
  <line x1="13.5" y1="30" x2="44.5" y2="30" stroke="#6ab725" stroke-width="0.8"/>
  <line x1="15.1" y1="34" x2="42.9" y2="34" stroke="#6ab725" stroke-width="0.8"/>
  <line x1="18.4" y1="38" x2="39.6" y2="38" stroke="#6ab725" stroke-width="0.8"/>
  <circle cx="29" cy="26" r="16" stroke="#6ab725" stroke-width="1.5"/>

  <!-- Cart handle -->
  <path d="M2 6 L12 6 L12 10" stroke="#6ab725" stroke-width="3.5" stroke-linecap="round" stroke-linejoin="round"/>
  <!-- Cart body -->
  <rect x="12" y="10" width="38" height="35" rx="3" stroke="#6ab725" stroke-width="3.5"/>
  <!-- Cart wheels -->
  <circle cx="19" cy="51" r="5" fill="#6ab725"/>
  <circle cx="43" cy="51" r="5" fill="#6ab725"/>

  <!-- KOS text (dark) -->
  <text x="60" y="43" font-family="'Arial Black', Arial, Helvetica, sans-serif" font-size="37" font-weight="900" fill="#313133">KOS</text>
</svg>
